<svg aria-roledescription="flowchart-v2" role="graphics-document document" viewBox="0 0 1418.59765625 2009.171875" style="max-width: 1418.59765625px;" class="flowchart" xmlns:xlink="http://www.w3.org/1999/xlink" xmlns="http://www.w3.org/2000/svg" width="100%" id="mermaid-diagram-mermaid-mv6w1y0"><style>#mermaid-diagram-mermaid-mv6w1y0{font-family:"trebuchet ms",verdana,arial,sans-serif;font-size:16px;fill:#000000;}@keyframes edge-animation-frame{from{stroke-dashoffset:0;}}@keyframes dash{to{stroke-dashoffset:0;}}#mermaid-diagram-mermaid-mv6w1y0 .edge-animation-slow{stroke-dasharray:9,5!important;stroke-dashoffset:900;animation:dash 50s linear infinite;stroke-linecap:round;}#mermaid-diagram-mermaid-mv6w1y0 .edge-animation-fast{stroke-dasharray:9,5!important;stroke-dashoffset:900;animation:dash 20s linear infinite;stroke-linecap:round;}#mermaid-diagram-mermaid-mv6w1y0 .error-icon{fill:#552222;}#mermaid-diagram-mermaid-mv6w1y0 .error-text{fill:#552222;stroke:#552222;}#mermaid-diagram-mermaid-mv6w1y0 .edge-thickness-normal{stroke-width:1px;}#mermaid-diagram-mermaid-mv6w1y0 .edge-thickness-thick{stroke-width:3.5px;}#mermaid-diagram-mermaid-mv6w1y0 .edge-pattern-solid{stroke-dasharray:0;}#mermaid-diagram-mermaid-mv6w1y0 .edge-thickness-invisible{stroke-width:0;fill:none;}#mermaid-diagram-mermaid-mv6w1y0 .edge-pattern-dashed{stroke-dasharray:3;}#mermaid-diagram-mermaid-mv6w1y0 .edge-pattern-dotted{stroke-dasharray:2;}#mermaid-diagram-mermaid-mv6w1y0 .marker{fill:#666;stroke:#666;}#mermaid-diagram-mermaid-mv6w1y0 .marker.cross{stroke:#666;}#mermaid-diagram-mermaid-mv6w1y0 svg{font-family:"trebuchet ms",verdana,arial,sans-serif;font-size:16px;}#mermaid-diagram-mermaid-mv6w1y0 p{margin:0;}#mermaid-diagram-mermaid-mv6w1y0 .label{font-family:"trebuchet ms",verdana,arial,sans-serif;color:#000000;}#mermaid-diagram-mermaid-mv6w1y0 .cluster-label text{fill:#333;}#mermaid-diagram-mermaid-mv6w1y0 .cluster-label span{color:#333;}#mermaid-diagram-mermaid-mv6w1y0 .cluster-label span p{background-color:transparent;}#mermaid-diagram-mermaid-mv6w1y0 .label text,#mermaid-diagram-mermaid-mv6w1y0 span{fill:#000000;color:#000000;}#mermaid-diagram-mermaid-mv6w1y0 .node rect,#mermaid-diagram-mermaid-mv6w1y0 .node circle,#mermaid-diagram-mermaid-mv6w1y0 .node ellipse,#mermaid-diagram-mermaid-mv6w1y0 .node polygon,#mermaid-diagram-mermaid-mv6w1y0 .node path{fill:#eee;stroke:#999;stroke-width:1px;}#mermaid-diagram-mermaid-mv6w1y0 .rough-node .label text,#mermaid-diagram-mermaid-mv6w1y0 .node .label text,#mermaid-diagram-mermaid-mv6w1y0 .image-shape .label,#mermaid-diagram-mermaid-mv6w1y0 .icon-shape .label{text-anchor:middle;}#mermaid-diagram-mermaid-mv6w1y0 .node .katex path{fill:#000;stroke:#000;stroke-width:1px;}#mermaid-diagram-mermaid-mv6w1y0 .rough-node .label,#mermaid-diagram-mermaid-mv6w1y0 .node .label,#mermaid-diagram-mermaid-mv6w1y0 .image-shape .label,#mermaid-diagram-mermaid-mv6w1y0 .icon-shape .label{text-align:center;}#mermaid-diagram-mermaid-mv6w1y0 .node.clickable{cursor:pointer;}#mermaid-diagram-mermaid-mv6w1y0 .root .anchor path{fill:#666!important;stroke-width:0;stroke:#666;}#mermaid-diagram-mermaid-mv6w1y0 .arrowheadPath{fill:#333333;}#mermaid-diagram-mermaid-mv6w1y0 .edgePath .path{stroke:#666;stroke-width:2.0px;}#mermaid-diagram-mermaid-mv6w1y0 .flowchart-link{stroke:#666;fill:none;}#mermaid-diagram-mermaid-mv6w1y0 .edgeLabel{background-color:white;text-align:center;}#mermaid-diagram-mermaid-mv6w1y0 .edgeLabel p{background-color:white;}#mermaid-diagram-mermaid-mv6w1y0 .edgeLabel rect{opacity:0.5;background-color:white;fill:white;}#mermaid-diagram-mermaid-mv6w1y0 .labelBkg{background-color:rgba(255, 255, 255, 0.5);}#mermaid-diagram-mermaid-mv6w1y0 .cluster rect{fill:hsl(0, 0%, 98.9215686275%);stroke:#707070;stroke-width:1px;}#mermaid-diagram-mermaid-mv6w1y0 .cluster text{fill:#333;}#mermaid-diagram-mermaid-mv6w1y0 .cluster span{color:#333;}#mermaid-diagram-mermaid-mv6w1y0 div.mermaidTooltip{position:absolute;text-align:center;max-width:200px;padding:2px;font-family:"trebuchet ms",verdana,arial,sans-serif;font-size:12px;background:hsl(-160, 0%, 93.3333333333%);border:1px solid #707070;border-radius:2px;pointer-events:none;z-index:100;}#mermaid-diagram-mermaid-mv6w1y0 .flowchartTitleText{text-anchor:middle;font-size:18px;fill:#000000;}#mermaid-diagram-mermaid-mv6w1y0 rect.text{fill:none;stroke-width:0;}#mermaid-diagram-mermaid-mv6w1y0 .icon-shape,#mermaid-diagram-mermaid-mv6w1y0 .image-shape{background-color:white;text-align:center;}#mermaid-diagram-mermaid-mv6w1y0 .icon-shape p,#mermaid-diagram-mermaid-mv6w1y0 .image-shape p{background-color:white;padding:2px;}#mermaid-diagram-mermaid-mv6w1y0 .icon-shape rect,#mermaid-diagram-mermaid-mv6w1y0 .image-shape rect{opacity:0.5;background-color:white;fill:white;}#mermaid-diagram-mermaid-mv6w1y0 :root{--mermaid-font-family:"trebuchet ms",verdana,arial,sans-serif;}</style><g><marker orient="auto" markerHeight="8" markerWidth="8" markerUnits="userSpaceOnUse" refY="5" refX="5" viewBox="0 0 10 10" class="marker flowchart-v2" id="mermaid-diagram-mermaid-mv6w1y0_flowchart-v2-pointEnd"><path style="stroke-width: 1; stroke-dasharray: 1, 0;" class="arrowMarkerPath" d="M 0 0 L 10 5 L 0 10 z"></path></marker><marker orient="auto" markerHeight="8" markerWidth="8" markerUnits="userSpaceOnUse" refY="5" refX="4.5" viewBox="0 0 10 10" class="marker flowchart-v2" id="mermaid-diagram-mermaid-mv6w1y0_flowchart-v2-pointStart"><path style="stroke-width: 1; stroke-dasharray: 1, 0;" class="arrowMarkerPath" d="M 0 5 L 10 10 L 10 0 z"></path></marker><marker orient="auto" markerHeight="11" markerWidth="11" markerUnits="userSpaceOnUse" refY="5" refX="11" viewBox="0 0 10 10" class="marker flowchart-v2" id="mermaid-diagram-mermaid-mv6w1y0_flowchart-v2-circleEnd"><circle style="stroke-width: 1; stroke-dasharray: 1, 0;" class="arrowMarkerPath" r="5" cy="5" cx="5"></circle></marker><marker orient="auto" markerHeight="11" markerWidth="11" markerUnits="userSpaceOnUse" refY="5" refX="-1" viewBox="0 0 10 10" class="marker flowchart-v2" id="mermaid-diagram-mermaid-mv6w1y0_flowchart-v2-circleStart"><circle style="stroke-width: 1; stroke-dasharray: 1, 0;" class="arrowMarkerPath" r="5" cy="5" cx="5"></circle></marker><marker orient="auto" markerHeight="11" markerWidth="11" markerUnits="userSpaceOnUse" refY="5.2" refX="12" viewBox="0 0 11 11" class="marker cross flowchart-v2" id="mermaid-diagram-mermaid-mv6w1y0_flowchart-v2-crossEnd"><path style="stroke-width: 2; stroke-dasharray: 1, 0;" class="arrowMarkerPath" d="M 1,1 l 9,9 M 10,1 l -9,9"></path></marker><marker orient="auto" markerHeight="11" markerWidth="11" markerUnits="userSpaceOnUse" refY="5.2" refX="-1" viewBox="0 0 11 11" class="marker cross flowchart-v2" id="mermaid-diagram-mermaid-mv6w1y0_flowchart-v2-crossStart"><path style="stroke-width: 2; stroke-dasharray: 1, 0;" class="arrowMarkerPath" d="M 1,1 l 9,9 M 10,1 l -9,9"></path></marker><g class="root"><g class="clusters"></g><g class="edgePaths"><path marker-end="url(#mermaid-diagram-mermaid-mv6w1y0_flowchart-v2-pointEnd)" style="" class="edge-thickness-normal edge-pattern-solid edge-thickness-normal edge-pattern-solid flowchart-link" id="L_A_B_0" d="M590.059,62L590.059,66.167C590.059,70.333,590.059,78.667,590.059,86.333C590.059,94,590.059,101,590.059,104.5L590.059,108"></path><path marker-end="url(#mermaid-diagram-mermaid-mv6w1y0_flowchart-v2-pointEnd)" style="" class="edge-thickness-normal edge-pattern-solid edge-thickness-normal edge-pattern-solid flowchart-link" id="L_B_C_0" d="M590.059,286L590.059,290.167C590.059,294.333,590.059,302.667,590.129,310.417C590.199,318.167,590.34,325.334,590.41,328.917L590.48,332.501"></path><path marker-end="url(#mermaid-diagram-mermaid-mv6w1y0_flowchart-v2-pointEnd)" style="" class="edge-thickness-normal edge-pattern-solid edge-thickness-normal edge-pattern-solid flowchart-link" id="L_C_D_0" d="M541.916,456.748L522.44,470.938C502.963,485.129,464.011,513.51,444.535,533.2C425.059,552.891,425.059,563.891,425.059,569.391L425.059,574.891"></path><path marker-end="url(#mermaid-diagram-mermaid-mv6w1y0_flowchart-v2-pointEnd)" style="" class="edge-thickness-normal edge-pattern-solid edge-thickness-normal edge-pattern-solid flowchart-link" id="L_C_E_0" d="M527.802,442.634L479.609,459.176C431.416,475.719,335.03,508.805,286.837,538.014C238.645,567.224,238.645,592.557,238.645,615.891C238.645,639.224,238.645,660.557,246.897,681.904C255.15,703.251,271.655,724.611,279.907,735.291L288.16,745.971"></path><path marker-end="url(#mermaid-diagram-mermaid-mv6w1y0_flowchart-v2-pointEnd)" style="" class="edge-thickness-normal edge-pattern-solid edge-thickness-normal edge-pattern-solid flowchart-link" id="L_D_E_0" d="M425.059,656.891L425.059,661.057C425.059,665.224,425.059,673.557,416.968,688.4C408.877,703.243,392.695,724.596,384.604,735.272L376.513,745.948"></path><path marker-end="url(#mermaid-diagram-mermaid-mv6w1y0_flowchart-v2-pointEnd)" style="" class="edge-thickness-normal edge-pattern-solid edge-thickness-normal edge-pattern-solid flowchart-link" id="L_E_F_0" d="M273.805,840.625L248.755,856.466C223.706,872.307,173.607,903.99,149.465,925.34C125.322,946.69,127.137,957.707,128.044,963.216L128.951,968.725"></path><path marker-end="url(#mermaid-diagram-mermaid-mv6w1y0_flowchart-v2-pointEnd)" style="" class="edge-thickness-normal edge-pattern-solid edge-thickness-normal edge-pattern-solid flowchart-link" id="L_F_C_0" d="M146.399,972.672L147.414,966.505C148.43,960.339,150.461,948.005,151.477,919.69C152.492,891.375,152.492,847.078,152.492,804.781C152.492,762.484,152.492,722.188,152.492,691.372C152.492,660.557,152.492,639.224,152.492,615.891C152.492,592.557,152.492,567.224,213.844,537.635C275.196,508.045,397.899,474.2,459.251,457.277L520.603,440.355"></path><path marker-end="url(#mermaid-diagram-mermaid-mv6w1y0_flowchart-v2-pointEnd)" style="" class="edge-thickness-normal edge-pattern-solid edge-thickness-normal edge-pattern-solid flowchart-link" id="L_E_G_0" d="M406.7,824.823L470.667,843.298C534.633,861.773,662.567,898.722,726.533,926.697C790.5,954.672,790.5,973.672,790.5,983.172L790.5,992.672"></path><path marker-end="url(#mermaid-diagram-mermaid-mv6w1y0_flowchart-v2-pointEnd)" style="" class="edge-thickness-normal edge-pattern-solid edge-thickness-normal edge-pattern-solid flowchart-link" id="L_G_H_0" d="M790.5,1050.672L790.5,1058.839C790.5,1067.005,790.5,1083.339,790.57,1095.089C790.641,1106.839,790.781,1114.006,790.851,1117.589L790.922,1121.173"></path><path marker-end="url(#mermaid-diagram-mermaid-mv6w1y0_flowchart-v2-pointEnd)" style="" class="edge-thickness-normal edge-pattern-solid edge-thickness-normal edge-pattern-solid flowchart-link" id="L_H_I_0" d="M733.776,1225.666L692.156,1241.287C650.535,1256.908,567.295,1288.149,527.321,1309.298C487.346,1330.446,490.637,1341.501,492.283,1347.029L493.929,1352.557"></path><path marker-end="url(#mermaid-diagram-mermaid-mv6w1y0_flowchart-v2-pointEnd)" style="" class="edge-thickness-normal edge-pattern-solid edge-thickness-normal edge-pattern-solid flowchart-link" id="L_I_C_0" d="M566.055,1356.391L570.055,1350.224C574.056,1344.057,582.057,1331.724,586.058,1306.247C590.059,1280.771,590.059,1242.151,590.059,1205.531C590.059,1168.911,590.059,1134.292,590.059,1104.315C590.059,1074.339,590.059,1049.005,590.059,1021.672C590.059,994.339,590.059,965.005,590.059,928.19C590.059,891.375,590.059,847.078,590.059,804.781C590.059,762.484,590.059,722.188,590.059,691.372C590.059,660.557,590.059,639.224,590.059,615.891C590.059,592.557,590.059,567.224,590.133,549.141C590.207,531.057,590.355,520.224,590.43,514.807L590.504,509.39"></path><path marker-end="url(#mermaid-diagram-mermaid-mv6w1y0_flowchart-v2-pointEnd)" style="" class="edge-thickness-normal edge-pattern-solid edge-thickness-normal edge-pattern-solid flowchart-link" id="L_H_J_0" d="M791,1282.891L790.917,1288.974C790.833,1295.057,790.667,1307.224,790.583,1326.807C790.5,1346.391,790.5,1373.391,790.5,1386.891L790.5,1400.391"></path><path marker-end="url(#mermaid-diagram-mermaid-mv6w1y0_flowchart-v2-pointEnd)" style="" class="edge-thickness-normal edge-pattern-solid edge-thickness-normal edge-pattern-solid flowchart-link" id="L_J_K_0" d="M790.5,1458.391L790.5,1470.557C790.5,1482.724,790.5,1507.057,796.157,1529.427C801.814,1551.797,813.128,1572.202,818.785,1582.405L824.442,1592.608"></path><path marker-end="url(#mermaid-diagram-mermaid-mv6w1y0_flowchart-v2-pointEnd)" style="" class="edge-thickness-normal edge-pattern-solid edge-thickness-normal edge-pattern-solid flowchart-link" id="L_K_L_0" d="M865.598,1777.672L865.514,1783.755C865.431,1789.839,865.264,1802.005,868.821,1813.696C872.377,1825.387,879.656,1836.602,883.296,1842.209L886.935,1847.817"></path><path marker-end="url(#mermaid-diagram-mermaid-mv6w1y0_flowchart-v2-pointEnd)" style="" class="edge-thickness-normal edge-pattern-solid edge-thickness-normal edge-pattern-solid flowchart-link" id="L_K_C_0" d="M904.814,1596.107L910.627,1585.321C916.441,1574.535,928.068,1552.963,933.882,1525.51C939.695,1498.057,939.695,1464.724,939.695,1429.391C939.695,1394.057,939.695,1356.724,939.695,1318.747C939.695,1280.771,939.695,1242.151,939.695,1205.531C939.695,1168.911,939.695,1134.292,939.695,1104.315C939.695,1074.339,939.695,1049.005,939.695,1021.672C939.695,994.339,939.695,965.005,939.695,928.19C939.695,891.375,939.695,847.078,939.695,804.781C939.695,762.484,939.695,722.188,939.695,691.372C939.695,660.557,939.695,639.224,939.695,615.891C939.695,592.557,939.695,567.224,892.582,538.246C845.468,509.268,751.241,476.646,704.127,460.335L657.014,444.024"></path><path marker-end="url(#mermaid-diagram-mermaid-mv6w1y0_flowchart-v2-pointEnd)" style="" class="edge-thickness-normal edge-pattern-solid edge-thickness-normal edge-pattern-solid flowchart-link" id="L_L_C_0" d="M1001.613,1851.172L1006.861,1845.005C1012.108,1838.839,1022.603,1826.505,1027.85,1795.773C1033.098,1765.042,1033.098,1715.911,1033.098,1668.781C1033.098,1621.651,1033.098,1576.521,1033.098,1537.289C1033.098,1498.057,1033.098,1464.724,1033.098,1429.391C1033.098,1394.057,1033.098,1356.724,1033.098,1318.747C1033.098,1280.771,1033.098,1242.151,1033.098,1205.531C1033.098,1168.911,1033.098,1134.292,1033.098,1104.315C1033.098,1074.339,1033.098,1049.005,1033.098,1021.672C1033.098,994.339,1033.098,965.005,1033.098,928.19C1033.098,891.375,1033.098,847.078,1033.098,804.781C1033.098,762.484,1033.098,722.188,1033.098,691.372C1033.098,660.557,1033.098,639.224,1033.098,615.891C1033.098,592.557,1033.098,567.224,971.03,537.603C908.963,507.983,784.829,474.075,722.762,457.121L660.695,440.167"></path><path marker-end="url(#mermaid-diagram-mermaid-mv6w1y0_flowchart-v2-pointEnd)" style="" class="edge-thickness-normal edge-pattern-solid edge-thickness-normal edge-pattern-solid flowchart-link" id="L_H_M_0" d="M852.405,1221.486L910.02,1237.803C967.636,1254.121,1082.867,1286.756,1140.482,1314.573C1198.098,1342.391,1198.098,1365.391,1198.098,1376.891L1198.098,1388.391"></path><path marker-end="url(#mermaid-diagram-mermaid-mv6w1y0_flowchart-v2-pointEnd)" style="" class="edge-thickness-normal edge-pattern-solid edge-thickness-normal edge-pattern-solid flowchart-link" id="L_M_N_0" d="M1198.098,1470.391L1198.098,1480.557C1198.098,1490.724,1198.098,1511.057,1198.098,1532.622C1198.098,1554.188,1198.098,1576.984,1198.098,1588.383L1198.098,1599.781"></path><path marker-end="url(#mermaid-diagram-mermaid-mv6w1y0_flowchart-v2-pointEnd)" style="" class="edge-thickness-normal edge-pattern-solid edge-thickness-normal edge-pattern-solid flowchart-link" id="L_N_O_0" d="M1198.098,1729.781L1198.098,1743.846C1198.098,1757.911,1198.098,1786.042,1206.664,1811.737C1215.231,1837.432,1232.364,1860.691,1240.931,1872.321L1249.498,1883.951"></path><path marker-end="url(#mermaid-diagram-mermaid-mv6w1y0_flowchart-v2-pointEnd)" style="" class="edge-thickness-normal edge-pattern-solid edge-thickness-normal edge-pattern-solid flowchart-link" id="L_O_C_0" d="M1309.325,1887.172L1318.287,1875.005C1327.249,1862.839,1345.174,1838.505,1354.136,1801.773C1363.098,1765.042,1363.098,1715.911,1363.098,1668.781C1363.098,1621.651,1363.098,1576.521,1363.098,1537.289C1363.098,1498.057,1363.098,1464.724,1363.098,1429.391C1363.098,1394.057,1363.098,1356.724,1363.098,1318.747C1363.098,1280.771,1363.098,1242.151,1363.098,1205.531C1363.098,1168.911,1363.098,1134.292,1363.098,1104.315C1363.098,1074.339,1363.098,1049.005,1363.098,1021.672C1363.098,994.339,1363.098,965.005,1363.098,928.19C1363.098,891.375,1363.098,847.078,1363.098,804.781C1363.098,762.484,1363.098,722.188,1363.098,691.372C1363.098,660.557,1363.098,639.224,1363.098,615.891C1363.098,592.557,1363.098,567.224,1247.163,536.414C1131.229,505.603,899.36,469.316,783.425,451.173L667.491,433.029"></path></g><g class="edgeLabels"><g class="edgeLabel"><g transform="translate(0, 0)" class="label"><foreignObject height="0" width="0"><div class="labelBkg" xmlns="http://www.w3.org/1999/xhtml" style="display: table-cell; white-space: nowrap; line-height: 1.5; max-width: 200px; text-align: center;"><span class="edgeLabel"></span></div></foreignObject></g></g><g class="edgeLabel"><g transform="translate(0, 0)" class="label"><foreignObject height="0" width="0"><div class="labelBkg" xmlns="http://www.w3.org/1999/xhtml" style="display: table-cell; white-space: nowrap; line-height: 1.5; max-width: 200px; text-align: center;"><span class="edgeLabel"></span></div></foreignObject></g></g><g transform="translate(425.05859375, 541.890625)" class="edgeLabel"><g transform="translate(-8.984375, -12)" class="label"><foreignObject height="24" width="17.96875"><div class="labelBkg" xmlns="http://www.w3.org/1999/xhtml" style="display: table-cell; white-space: nowrap; line-height: 1.5; max-width: 200px; text-align: center;"><span class="edgeLabel"><p>Có</p></span></div></foreignObject></g></g><g transform="translate(238.64453125, 617.890625)" class="edgeLabel"><g transform="translate(-21.4140625, -12)" class="label"><foreignObject height="24" width="42.828125"><div class="labelBkg" xmlns="http://www.w3.org/1999/xhtml" style="display: table-cell; white-space: nowrap; line-height: 1.5; max-width: 200px; text-align: center;"><span class="edgeLabel"><p>Không</p></span></div></foreignObject></g></g><g class="edgeLabel"><g transform="translate(0, 0)" class="label"><foreignObject height="0" width="0"><div class="labelBkg" xmlns="http://www.w3.org/1999/xhtml" style="display: table-cell; white-space: nowrap; line-height: 1.5; max-width: 200px; text-align: center;"><span class="edgeLabel"></span></div></foreignObject></g></g><g transform="translate(123.5078125, 935.671875)" class="edgeLabel"><g transform="translate(-8.984375, -12)" class="label"><foreignObject height="24" width="17.96875"><div class="labelBkg" xmlns="http://www.w3.org/1999/xhtml" style="display: table-cell; white-space: nowrap; line-height: 1.5; max-width: 200px; text-align: center;"><span class="edgeLabel"><p>Có</p></span></div></foreignObject></g></g><g class="edgeLabel"><g transform="translate(0, 0)" class="label"><foreignObject height="0" width="0"><div class="labelBkg" xmlns="http://www.w3.org/1999/xhtml" style="display: table-cell; white-space: nowrap; line-height: 1.5; max-width: 200px; text-align: center;"><span class="edgeLabel"></span></div></foreignObject></g></g><g transform="translate(790.5, 935.671875)" class="edgeLabel"><g transform="translate(-59.0078125, -12)" class="label"><foreignObject height="24" width="118.015625"><div class="labelBkg" xmlns="http://www.w3.org/1999/xhtml" style="display: table-cell; white-space: nowrap; line-height: 1.5; max-width: 200px; text-align: center;"><span class="edgeLabel"><p>Không - Tự Động</p></span></div></foreignObject></g></g><g class="edgeLabel"><g transform="translate(0, 0)" class="label"><foreignObject height="0" width="0"><div class="labelBkg" xmlns="http://www.w3.org/1999/xhtml" style="display: table-cell; white-space: nowrap; line-height: 1.5; max-width: 200px; text-align: center;"><span class="edgeLabel"></span></div></foreignObject></g></g><g transform="translate(484.0546875, 1319.390625)" class="edgeLabel"><g transform="translate(-46.6875, -12)" class="label"><foreignObject height="24" width="93.375"><div class="labelBkg" xmlns="http://www.w3.org/1999/xhtml" style="display: table-cell; white-space: nowrap; line-height: 1.5; max-width: 200px; text-align: center;"><span class="edgeLabel"><p>LOW → HIGH</p></span></div></foreignObject></g></g><g class="edgeLabel"><g transform="translate(0, 0)" class="label"><foreignObject height="0" width="0"><div class="labelBkg" xmlns="http://www.w3.org/1999/xhtml" style="display: table-cell; white-space: nowrap; line-height: 1.5; max-width: 200px; text-align: center;"><span class="edgeLabel"></span></div></foreignObject></g></g><g transform="translate(790.5, 1319.390625)" class="edgeLabel"><g transform="translate(-56.5703125, -12)" class="label"><foreignObject height="24" width="113.140625"><div class="labelBkg" xmlns="http://www.w3.org/1999/xhtml" style="display: table-cell; white-space: nowrap; line-height: 1.5; max-width: 200px; text-align: center;"><span class="edgeLabel"><p>HIGH - Đang mở</p></span></div></foreignObject></g></g><g class="edgeLabel"><g transform="translate(0, 0)" class="label"><foreignObject height="0" width="0"><div class="labelBkg" xmlns="http://www.w3.org/1999/xhtml" style="display: table-cell; white-space: nowrap; line-height: 1.5; max-width: 200px; text-align: center;"><span class="edgeLabel"></span></div></foreignObject></g></g><g transform="translate(865.09765625, 1814.171875)" class="edgeLabel"><g transform="translate(-8.984375, -12)" class="label"><foreignObject height="24" width="17.96875"><div class="labelBkg" xmlns="http://www.w3.org/1999/xhtml" style="display: table-cell; white-space: nowrap; line-height: 1.5; max-width: 200px; text-align: center;"><span class="edgeLabel"><p>Có</p></span></div></foreignObject></g></g><g transform="translate(939.6953125, 1023.671875)" class="edgeLabel"><g transform="translate(-21.4140625, -12)" class="label"><foreignObject height="24" width="42.828125"><div class="labelBkg" xmlns="http://www.w3.org/1999/xhtml" style="display: table-cell; white-space: nowrap; line-height: 1.5; max-width: 200px; text-align: center;"><span class="edgeLabel"><p>Không</p></span></div></foreignObject></g></g><g class="edgeLabel"><g transform="translate(0, 0)" class="label"><foreignObject height="0" width="0"><div class="labelBkg" xmlns="http://www.w3.org/1999/xhtml" style="display: table-cell; white-space: nowrap; line-height: 1.5; max-width: 200px; text-align: center;"><span class="edgeLabel"></span></div></foreignObject></g></g><g transform="translate(1198.09765625, 1319.390625)" class="edgeLabel"><g transform="translate(-46.6875, -12)" class="label"><foreignObject height="24" width="93.375"><div class="labelBkg" xmlns="http://www.w3.org/1999/xhtml" style="display: table-cell; white-space: nowrap; line-height: 1.5; max-width: 200px; text-align: center;"><span class="edgeLabel"><p>HIGH → LOW</p></span></div></foreignObject></g></g><g class="edgeLabel"><g transform="translate(0, 0)" class="label"><foreignObject height="0" width="0"><div class="labelBkg" xmlns="http://www.w3.org/1999/xhtml" style="display: table-cell; white-space: nowrap; line-height: 1.5; max-width: 200px; text-align: center;"><span class="edgeLabel"></span></div></foreignObject></g></g><g class="edgeLabel"><g transform="translate(0, 0)" class="label"><foreignObject height="0" width="0"><div class="labelBkg" xmlns="http://www.w3.org/1999/xhtml" style="display: table-cell; white-space: nowrap; line-height: 1.5; max-width: 200px; text-align: center;"><span class="edgeLabel"></span></div></foreignObject></g></g><g class="edgeLabel"><g transform="translate(0, 0)" class="label"><foreignObject height="0" width="0"><div class="labelBkg" xmlns="http://www.w3.org/1999/xhtml" style="display: table-cell; white-space: nowrap; line-height: 1.5; max-width: 200px; text-align: center;"><span class="edgeLabel"></span></div></foreignObject></g></g></g><g class="nodes"><g transform="translate(590.05859375, 35)" id="flowchart-A-0" class="node default"><rect height="54" width="186.6875" y="-27" x="-93.34375" style="fill:#4ade80 !important;stroke:#166534 !important" class="basic label-container"></rect><g transform="translate(-63.34375, -12)" style="" class="label"><rect></rect><foreignObject height="24" width="126.6875"><div xmlns="http://www.w3.org/1999/xhtml" style="display: table-cell; white-space: nowrap; line-height: 1.5; max-width: 200px; text-align: center;"><span class="nodeLabel"><p>Khởi động - Setup</p></span></div></foreignObject></g></g><g transform="translate(590.05859375, 199)" id="flowchart-B-1" class="node default"><rect height="174" width="260" y="-87" x="-130" style="" class="basic label-container"></rect><g transform="translate(-100, -72)" style="" class="label"><rect></rect><foreignObject height="144" width="200"><div xmlns="http://www.w3.org/1999/xhtml" style="display: table; white-space: break-spaces; line-height: 1.5; max-width: 200px; text-align: center; width: 200px;"><span class="nodeLabel"><p>Kết nối WiFi Wokwi-GUEST\nKết nối MQTT HiveMQ\nĐăng ký callback topic iot/door/control\nLưu thời gian bắt đầu</p></span></div></foreignObject></g></g><g transform="translate(590.05859375, 420.4453125)" id="flowchart-C-4" class="node default"><polygon transform="translate(-84.4453125,84.4453125)" class="label-container" points="84.4453125,0 168.890625,-84.4453125 84.4453125,-168.890625 0,-84.4453125"></polygon><g transform="translate(-57.4453125, -12)" style="" class="label"><rect></rect><foreignObject height="24" width="114.890625"><div xmlns="http://www.w3.org/1999/xhtml" style="display: table-cell; white-space: nowrap; line-height: 1.5; max-width: 200px; text-align: center;"><span class="nodeLabel"><p>Kiểm tra 24 giờ?</p></span></div></foreignObject></g></g><g transform="translate(425.05859375, 617.890625)" id="flowchart-D-6" class="node default"><rect height="78" width="260" y="-39" x="-130" style="" class="basic label-container"></rect><g transform="translate(-100, -24)" style="" class="label"><rect></rect><foreignObject height="48" width="200"><div xmlns="http://www.w3.org/1999/xhtml" style="display: table; white-space: break-spaces; line-height: 1.5; max-width: 200px; text-align: center; width: 200px;"><span class="nodeLabel"><p>Reset: doorCycleCount = 0\n totalDailyOpenTime = 0</p></span></div></foreignObject></g></g><g transform="translate(331.8515625, 802.78125)" id="flowchart-E-8" class="node default"><polygon transform="translate(-95.890625,95.890625)" class="label-container" points="95.890625,0 191.78125,-95.890625 95.890625,-191.78125 0,-95.890625"></polygon><g transform="translate(-68.890625, -12)" style="" class="label"><rect></rect><foreignObject height="24" width="137.78125"><div xmlns="http://www.w3.org/1999/xhtml" style="display: table-cell; white-space: nowrap; line-height: 1.5; max-width: 200px; text-align: center;"><span class="nodeLabel"><p>Chế độ THỦ CÔNG?</p></span></div></foreignObject></g></g><g transform="translate(138, 1023.671875)" id="flowchart-F-12" class="node default"><rect height="102" width="260" y="-51" x="-130" style="fill:#facc15 !important;stroke:#854d0e !important" class="basic label-container"></rect><g transform="translate(-100, -36)" style="" class="label"><rect></rect><foreignObject height="72" width="200"><div xmlns="http://www.w3.org/1999/xhtml" style="display: table; white-space: break-spaces; line-height: 1.5; max-width: 200px; text-align: center; width: 200px;"><span class="nodeLabel"><p>Ép bật LED\nTắt Buzzer\nNgừng đọc PIR\nChờ lệnh MQTT</p></span></div></foreignObject></g></g><g transform="translate(790.5, 1023.671875)" id="flowchart-G-16" class="node default"><rect height="54" width="185.5625" y="-27" x="-92.78125" style="" class="basic label-container"></rect><g transform="translate(-62.78125, -12)" style="" class="label"><rect></rect><foreignObject height="24" width="125.5625"><div xmlns="http://www.w3.org/1999/xhtml" style="display: table-cell; white-space: nowrap; line-height: 1.5; max-width: 200px; text-align: center;"><span class="nodeLabel"><p>Đọc cảm biến PIR</p></span></div></foreignObject></g></g><g transform="translate(790.5, 1203.53125)" id="flowchart-H-18" class="node default"><polygon transform="translate(-78.859375,78.859375)" class="label-container" points="78.859375,0 157.71875,-78.859375 78.859375,-157.71875 0,-78.859375"></polygon><g transform="translate(-51.859375, -12)" style="" class="label"><rect></rect><foreignObject height="24" width="103.71875"><div xmlns="http://www.w3.org/1999/xhtml" style="display: table-cell; white-space: nowrap; line-height: 1.5; max-width: 200px; text-align: center;"><span class="nodeLabel"><p>PIR trạng thái?</p></span></div></foreignObject></g></g><g transform="translate(517.3984375, 1431.390625)" id="flowchart-I-20" class="node default"><rect height="150" width="260" y="-75" x="-130" style="" class="basic label-container"></rect><g transform="translate(-100, -60)" style="" class="label"><rect></rect><foreignObject height="120" width="200"><div xmlns="http://www.w3.org/1999/xhtml" style="display: table; white-space: break-spaces; line-height: 1.5; max-width: 200px; text-align: center; width: 200px;"><span class="nodeLabel"><p>Cửa bắt đầu mở\nisDoorOpen = true\nLưu openStartTime\nBật LED\nBíp ngắn 1500Hz</p></span></div></foreignObject></g></g><g transform="translate(790.5, 1431.390625)" id="flowchart-J-24" class="node default"><rect height="54" width="186.203125" y="-27" x="-93.1015625" style="" class="basic label-container"></rect><g transform="translate(-63.1015625, -12)" style="" class="label"><rect></rect><foreignObject height="24" width="126.203125"><div xmlns="http://www.w3.org/1999/xhtml" style="display: table-cell; white-space: nowrap; line-height: 1.5; max-width: 200px; text-align: center;"><span class="nodeLabel"><p>Tính thời gian mở</p></span></div></foreignObject></g></g><g transform="translate(865.09765625, 1666.78125)" id="flowchart-K-26" class="node default"><polygon transform="translate(-110.390625,110.390625)" class="label-container" points="110.390625,0 220.78125,-110.390625 110.390625,-220.78125 0,-110.390625"></polygon><g transform="translate(-83.390625, -12)" style="" class="label"><rect></rect><foreignObject height="24" width="166.78125"><div xmlns="http://www.w3.org/1999/xhtml" style="display: table-cell; white-space: nowrap; line-height: 1.5; max-width: 200px; text-align: center;"><span class="nodeLabel"><p>Thời gian mở &gt; 10 giây?</p></span></div></foreignObject></g></g><g transform="translate(937.79296875, 1926.171875)" id="flowchart-L-28" class="node default"><rect height="150" width="260" y="-75" x="-130" style="fill:#ef4444 !important;stroke:#991b1b !important" class="basic label-container"></rect><g transform="translate(-100, -60)" style="" class="label"><rect></rect><foreignObject height="120" width="200"><div xmlns="http://www.w3.org/1999/xhtml" style="display: table; white-space: break-spaces; line-height: 1.5; max-width: 200px; text-align: center; width: 200px;"><span class="nodeLabel"><p>Hú còi liên tục 2000Hz\nGửi JSON dữ liệu lên MQTT\n totalOpenTime, cycleCount, maintenance</p></span></div></foreignObject></g></g><g transform="translate(1198.09765625, 1431.390625)" id="flowchart-M-34" class="node default"><rect height="78" width="260" y="-39" x="-130" style="" class="basic label-container"></rect><g transform="translate(-100, -24)" style="" class="label"><rect></rect><foreignObject height="48" width="200"><div xmlns="http://www.w3.org/1999/xhtml" style="display: table; white-space: break-spaces; line-height: 1.5; max-width: 200px; text-align: center; width: 200px;"><span class="nodeLabel"><p>Cửa đóng\nTắt LED\nDừng còi\nBíp xác nhận 800Hz</p></span></div></foreignObject></g></g><g transform="translate(1198.09765625, 1666.78125)" id="flowchart-N-36" class="node default"><rect height="126" width="260" y="-63" x="-130" style="" class="basic label-container"></rect><g transform="translate(-100, -48)" style="" class="label"><rect></rect><foreignObject height="96" width="200"><div xmlns="http://www.w3.org/1999/xhtml" style="display: table; white-space: break-spaces; line-height: 1.5; max-width: 200px; text-align: center; width: 200px;"><span class="nodeLabel"><p>Cập nhật thống kê:\ntotalDailyOpenTime += thời gian mở\ndoorCycleCount += 1</p></span></div></foreignObject></g></g><g transform="translate(1280.59765625, 1926.171875)" id="flowchart-O-38" class="node default"><rect height="78" width="260" y="-39" x="-130" style="" class="basic label-container"></rect><g transform="translate(-100, -24)" style="" class="label"><rect></rect><foreignObject height="48" width="200"><div xmlns="http://www.w3.org/1999/xhtml" style="display: table; white-space: break-spaces; line-height: 1.5; max-width: 200px; text-align: center; width: 200px;"><span class="nodeLabel"><p>Gửi báo cáo JSON lên topic iot/door/data</p></span></div></foreignObject></g></g></g></g></g></svg>